<mxfile host="app.diagrams.net" modified="2024-01-06T11:20:45.782Z" agent="Mozilla/5.0 (Windows NT 10.0; Win64; x64) AppleWebKit/537.36 (KHTML, like Gecko) Chrome/120.0.0.0 Safari/537.36" etag="ui3rWPg1y-fs_l7M2Jh1" version="22.1.17" type="device">
  <diagram name="PÃ¡gina-1" id="AVQD0GEnDMbDvJsgxkBh">
    <mxGraphModel dx="954" dy="639" grid="1" gridSize="10" guides="1" tooltips="1" connect="1" arrows="1" fold="1" page="1" pageScale="1" pageWidth="827" pageHeight="1169" math="0" shadow="0">
      <root>
        <mxCell id="0" />
        <mxCell id="1" parent="0" />
        <mxCell id="6MeacNCPiSF9ehHXWCRm-27" value="" style="rounded=0;whiteSpace=wrap;html=1;" vertex="1" parent="1">
          <mxGeometry x="440" y="440" width="320" height="120" as="geometry" />
        </mxCell>
        <mxCell id="6MeacNCPiSF9ehHXWCRm-28" value="" style="rounded=0;whiteSpace=wrap;html=1;" vertex="1" parent="1">
          <mxGeometry x="440" y="560" width="320" height="280" as="geometry" />
        </mxCell>
        <mxCell id="6MeacNCPiSF9ehHXWCRm-29" value="" style="rounded=0;whiteSpace=wrap;html=1;" vertex="1" parent="1">
          <mxGeometry x="770" y="440" width="320" height="120" as="geometry" />
        </mxCell>
        <mxCell id="6MeacNCPiSF9ehHXWCRm-30" value="" style="rounded=0;whiteSpace=wrap;html=1;" vertex="1" parent="1">
          <mxGeometry x="770" y="560" width="320" height="280" as="geometry" />
        </mxCell>
        <mxCell id="6MeacNCPiSF9ehHXWCRm-31" value="" style="rounded=0;whiteSpace=wrap;html=1;" vertex="1" parent="1">
          <mxGeometry x="1110" y="440" width="320" height="120" as="geometry" />
        </mxCell>
        <mxCell id="6MeacNCPiSF9ehHXWCRm-32" value="" style="rounded=0;whiteSpace=wrap;html=1;" vertex="1" parent="1">
          <mxGeometry x="1110" y="560" width="320" height="280" as="geometry" />
        </mxCell>
        <mxCell id="6MeacNCPiSF9ehHXWCRm-12" value="" style="rounded=0;whiteSpace=wrap;html=1;" vertex="1" parent="1">
          <mxGeometry x="80" y="440" width="320" height="120" as="geometry" />
        </mxCell>
        <mxCell id="6MeacNCPiSF9ehHXWCRm-14" value="&lt;div&gt;- producto_id: int&lt;/div&gt;&lt;div&gt;- nombre: string&lt;/div&gt;&lt;div&gt;- precio: float&lt;/div&gt;&lt;div&gt;- stock: int&lt;/div&gt;&lt;div&gt;- imagen: string&lt;/div&gt;&lt;div&gt;- categoria_id: int&lt;/div&gt;&lt;div&gt;- nombre_categoria: string&lt;/div&gt;" style="text;html=1;strokeColor=none;fillColor=none;align=left;verticalAlign=middle;whiteSpace=wrap;rounded=0;" vertex="1" parent="1">
          <mxGeometry x="100" y="430" width="160" height="140" as="geometry" />
        </mxCell>
        <mxCell id="6MeacNCPiSF9ehHXWCRm-16" value="" style="rounded=0;whiteSpace=wrap;html=1;" vertex="1" parent="1">
          <mxGeometry x="80" y="560" width="320" height="280" as="geometry" />
        </mxCell>
        <mxCell id="6MeacNCPiSF9ehHXWCRm-15" value="&lt;div&gt;+ __construct(producto_id: int, nombre: string, precio: float, stock: int, imagen: string, categoria_id: int, nombre_categoria: string)&lt;/div&gt;&lt;div&gt;+ getproducto_id(): int&lt;/div&gt;&lt;div&gt;+ setproducto_id(producto_id: int): self&lt;/div&gt;&lt;div&gt;+ getnombre(): string&lt;/div&gt;&lt;div&gt;+ setnombre(nombre: string): self&lt;/div&gt;&lt;div&gt;+ getprecio(): float&lt;/div&gt;&lt;div&gt;+ setprecio(precio: float): self&lt;/div&gt;&lt;div&gt;+ getStock(): int&lt;/div&gt;&lt;div&gt;+ setStock(stock: int): self&lt;/div&gt;&lt;div&gt;+ getimagen(): string&lt;/div&gt;&lt;div&gt;+ setimagen(imagen: string): self&lt;/div&gt;&lt;div&gt;+ getcategoria_id(): int&lt;/div&gt;&lt;div&gt;+ setcategoria_id(categoria_id: int): self&lt;/div&gt;&lt;div&gt;+ getNombreCategoria(): string&lt;/div&gt;&lt;div&gt;+ setNombreCategoria(nombre_categoria: string): self&lt;/div&gt;" style="text;html=1;strokeColor=none;fillColor=none;align=left;verticalAlign=middle;whiteSpace=wrap;rounded=0;" vertex="1" parent="1">
          <mxGeometry x="90" y="560" width="290" height="280" as="geometry" />
        </mxCell>
        <mxCell id="6MeacNCPiSF9ehHXWCRm-17" value="Producto" style="rounded=0;whiteSpace=wrap;html=1;" vertex="1" parent="1">
          <mxGeometry x="80" y="400" width="320" height="40" as="geometry" />
        </mxCell>
        <mxCell id="6MeacNCPiSF9ehHXWCRm-18" value="&lt;div&gt;+ __construct(producto)&lt;/div&gt;&lt;div&gt;+ getProducto()&lt;/div&gt;&lt;div&gt;+ setProducto(producto): self&lt;/div&gt;&lt;div&gt;+ getCantidad()&lt;/div&gt;&lt;div&gt;+ setCantidad(cantidad): self&lt;/div&gt;&lt;div&gt;+ aumentarCantidad()&lt;/div&gt;&lt;div&gt;+ setCategoria(categoria)&lt;/div&gt;&lt;div&gt;+ getCategoria()&lt;/div&gt;" style="text;html=1;strokeColor=none;fillColor=none;align=left;verticalAlign=middle;whiteSpace=wrap;rounded=0;" vertex="1" parent="1">
          <mxGeometry x="455" y="560" width="270" height="280" as="geometry" />
        </mxCell>
        <mxCell id="6MeacNCPiSF9ehHXWCRm-19" value="- producto: &lt;br&gt;- cantidad: int&lt;br&gt;- categoria: " style="text;html=1;strokeColor=none;fillColor=none;align=left;verticalAlign=middle;whiteSpace=wrap;rounded=0;" vertex="1" parent="1">
          <mxGeometry x="455" y="430" width="160" height="140" as="geometry" />
        </mxCell>
        <mxCell id="6MeacNCPiSF9ehHXWCRm-20" value="Pedido" style="rounded=0;whiteSpace=wrap;html=1;" vertex="1" parent="1">
          <mxGeometry x="440" y="400" width="320" height="40" as="geometry" />
        </mxCell>
        <mxCell id="6MeacNCPiSF9ehHXWCRm-21" value="&lt;div&gt;- cliente_id: int&lt;/div&gt;&lt;div&gt;- usuario: string&lt;/div&gt;&lt;div&gt;- email: string&lt;/div&gt;&lt;div&gt;- nombre: string&lt;/div&gt;&lt;div&gt;- apellidos: string&lt;/div&gt;&lt;div&gt;- direccion: string&lt;/div&gt;&lt;div&gt;- telefono: string&lt;/div&gt;" style="text;html=1;strokeColor=none;fillColor=none;align=left;verticalAlign=middle;whiteSpace=wrap;rounded=0;" vertex="1" parent="1">
          <mxGeometry x="770" y="430" width="160" height="140" as="geometry" />
        </mxCell>
        <mxCell id="6MeacNCPiSF9ehHXWCRm-22" value="&lt;div&gt;+ __construct()&lt;/div&gt;&lt;div&gt;+ getClienteId(): int&lt;/div&gt;&lt;div&gt;+ setClienteId(cliente_id: int): self&lt;/div&gt;&lt;div&gt;+ getUsuario(): string&lt;/div&gt;&lt;div&gt;+ setUsuario(usuario: string): self&lt;/div&gt;&lt;div&gt;+ getEmail(): string&lt;/div&gt;&lt;div&gt;+ setEmail(email: string): self&lt;/div&gt;&lt;div&gt;+ getNombre(): string&lt;/div&gt;&lt;div&gt;+ setNombre(nombre: string): self&lt;/div&gt;&lt;div&gt;+ getApellidos(): string&lt;/div&gt;&lt;div&gt;+ setApellidos(apellidos: string): self&lt;/div&gt;&lt;div&gt;+ getDireccion(): string&lt;/div&gt;&lt;div&gt;+ setDireccion(direccion: string): self&lt;/div&gt;&lt;div&gt;+ getTelefono(): string&lt;/div&gt;&lt;div&gt;+ setTelefono(telefono: string): self&lt;/div&gt;" style="text;html=1;strokeColor=none;fillColor=none;align=left;verticalAlign=middle;whiteSpace=wrap;rounded=0;" vertex="1" parent="1">
          <mxGeometry x="770" y="560" width="270" height="280" as="geometry" />
        </mxCell>
        <mxCell id="6MeacNCPiSF9ehHXWCRm-23" value="- permisos_admin: string" style="text;html=1;strokeColor=none;fillColor=none;align=left;verticalAlign=middle;whiteSpace=wrap;rounded=0;" vertex="1" parent="1">
          <mxGeometry x="1120" y="430" width="160" height="140" as="geometry" />
        </mxCell>
        <mxCell id="6MeacNCPiSF9ehHXWCRm-24" value="&lt;div&gt;+ __construct()&lt;/div&gt;&lt;div&gt;+ getPermisos_admin(): string&lt;/div&gt;&lt;div&gt;+ setPermisos_admin(permisos_admin: string): self&lt;/div&gt;" style="text;html=1;strokeColor=none;fillColor=none;align=left;verticalAlign=middle;whiteSpace=wrap;rounded=0;" vertex="1" parent="1">
          <mxGeometry x="1123" y="560" width="294" height="280" as="geometry" />
        </mxCell>
        <mxCell id="6MeacNCPiSF9ehHXWCRm-25" value="Usuario" style="rounded=0;whiteSpace=wrap;html=1;" vertex="1" parent="1">
          <mxGeometry x="770" y="400" width="320" height="40" as="geometry" />
        </mxCell>
        <mxCell id="6MeacNCPiSF9ehHXWCRm-26" value="&amp;nbsp; &amp;nbsp; &amp;nbsp; UsuarioAdmin extends Usuario" style="rounded=0;whiteSpace=wrap;html=1;" vertex="1" parent="1">
          <mxGeometry x="1110" y="400" width="320" height="40" as="geometry" />
        </mxCell>
      </root>
    </mxGraphModel>
  </diagram>
</mxfile>
